<svg xmlns="http://www.w3.org/2000/svg" xmlns:xlink="http://www.w3.org/1999/xlink" x="0" y="0" version="1.1" viewBox="0 0 16 16" xml:space="preserve"><style>.st2{fill:#5e97f6}.st4{fill:#3367d6}.st6{fill:#1a237e;fill-opacity:.15}.st9{fill:#a1c2fa}.st20{fill:#4285f4}.st26{fill:#fff}</style><path fill="none" d="M0 0h16v16H0z"/><defs><circle id="SVGID_1_" cx="8" cy="8" r="7.3"/></defs><clipPath id="SVGID_2_"><use overflow="visible" xlink:href="#SVGID_1_"/></clipPath><g clip-path="url(#SVGID_2_)"><path id="R" d="M.7 15.3h7l3.2-3.2V9.7H5.1L.7 2v13.3z" class="st2"/><linearGradient id="R_5_" x1="9.239" x2="4.378" y1="3.652" y2="6.499" gradientTransform="matrix(1 0 0 -1 0 17.36)" gradientUnits="userSpaceOnUse"><stop offset="0" stop-color="#1a237e" stop-opacity=".4"/><stop offset=".33" stop-color="#1a237e" stop-opacity="0"/></linearGradient><path id="R_1_" fill="url(#R_5_)" d="M.7 15.3h7l3.2-3.2V9.7H5.1L.7 2v13.3z"/><path id="T" d="M1.8.7v9h3.3l2.9-5h7.3v-4H1.8z" class="st4"/><linearGradient id="T_4_" x1="2.536" x2="7.212" y1="11.16" y2="13.892" gradientTransform="matrix(1 0 0 -1 0 17.36)" gradientUnits="userSpaceOnUse"><stop offset="0" stop-color="#1a237e" stop-opacity=".2"/><stop offset=".66" stop-color="#1a237e" stop-opacity="0"/></linearGradient><path id="T_1_" fill="url(#T_4_)" d="M1.8.7v9h3.3l2.9-5h7.3v-4H1.8z"/><path d="M5.2 9.6L1.9 3.9V4l3.3 5.6z" class="st6"/><path id="R_2_" d="M.7 15.3h7l3.2-3.2V9.7H5.1L.7 2v13.3z" class="st2"/><linearGradient id="R_6_" x1="9.881" x2="4.548" y1="3.268" y2="6.396" gradientTransform="matrix(1 0 0 -1 0 17.36)" gradientUnits="userSpaceOnUse"><stop offset="0" stop-color="#1a237e" stop-opacity=".2"/><stop offset=".33" stop-color="#1a237e" stop-opacity="0"/></linearGradient><path id="R_3_" fill="url(#R_6_)" d="M.7 15.3h7l3.2-3.2V9.7H5.1L.7 2v13.3z"/><path d="M10.8 9.8l-3.3 5.6h.1l3.2-5.6z" class="st6"/><defs><path id="SVGID_3_" d="M.7 15.3h6.9l3.3-3.2V9.7H5.1L.7 2z"/></defs><clipPath id="SVGID_4_"><use overflow="visible" xlink:href="#SVGID_3_"/></clipPath><g clip-path="url(#SVGID_4_)"><path id="S" d="M8 4.7l2.9 5-3.2 5.7h7.7V4.7H8z" class="st9"/><linearGradient id="S_4_" x1="10.155" x2="11.379" y1="13.21" y2="7.849" gradientTransform="matrix(1 0 0 -1 0 17.36)" gradientUnits="userSpaceOnUse"><stop offset="0" stop-color="#1a237e" stop-opacity=".3"/><stop offset=".66" stop-color="#1a237e" stop-opacity="0"/></linearGradient><path id="S_1_" fill="url(#S_4_)" d="M8 4.7l2.9 5-3.2 5.7h7.7V4.7H8z"/></g><path id="S_2_" d="M8 4.7l2.9 5-3.2 5.7h7.7V4.7H8z" class="st9"/><linearGradient id="S_5_" x1="10.155" x2="11.357" y1="13.187" y2="7.942" gradientTransform="matrix(1 0 0 -1 0 17.36)" gradientUnits="userSpaceOnUse"><stop offset="0" stop-color="#1a237e" stop-opacity=".3"/><stop offset=".66" stop-color="#1a237e" stop-opacity="0"/></linearGradient><path id="S_3_" fill="url(#S_5_)" d="M8 4.7l2.9 5-3.2 5.7h7.7V4.7H8z"/><defs><path id="SVGID_5_" d="M8 4.7l2.9 5-3.3 5.6h7.7V4.7z"/></defs><clipPath id="SVGID_6_"><use overflow="visible" xlink:href="#SVGID_5_"/></clipPath><g clip-path="url(#SVGID_6_)"><path id="T_2_" d="M1.8.7v9h3.3l2.9-5h7.3v-4H1.8z" class="st4"/><linearGradient id="T_5_" x1="2.445" x2="6.82" y1="11.108" y2="13.664" gradientTransform="matrix(1 0 0 -1 0 17.36)" gradientUnits="userSpaceOnUse"><stop offset="0" stop-color="#1a237e" stop-opacity=".6"/><stop offset=".66" stop-color="#1a237e" stop-opacity="0"/></linearGradient><path id="T_3_" fill="url(#T_5_)" d="M1.8.7v9h3.3l2.9-5h7.3v-4H1.8z"/></g><radialGradient id="SVGID_7_" cx="7.682" cy="12.697" r="7.006" gradientTransform="matrix(1 0 0 -1 0 17.36)" gradientUnits="userSpaceOnUse"><stop offset="0" stop-color="#1a237e" stop-opacity=".2"/><stop offset="1" stop-color="#1a237e" stop-opacity="0"/></radialGradient><path fill="url(#SVGID_7_)" d="M8 4.7v1.7l6.5-1.7H8z"/><g><defs><path id="SVGID_8_" d="M5.1 9.7l2.9-5h7.3v-4H1.8V4"/></defs><clipPath id="SVGID_9_"><use overflow="visible" xlink:href="#SVGID_8_"/></clipPath><g clip-path="url(#SVGID_9_)"><linearGradient id="R_7_" x1=".667" x2="10.887" y1="8.673" y2="8.673" gradientTransform="matrix(1 0 0 -1 0 17.36)" gradientUnits="userSpaceOnUse"><stop offset="0" stop-color="#f4b400" stop-opacity=".4"/><stop offset=".09" stop-color="#f2a700" stop-opacity=".3"/><stop offset=".22" stop-color="#f19800" stop-opacity=".13"/><stop offset=".33" stop-color="#f09300" stop-opacity="0"/></linearGradient><path id="R_4_" fill="url(#R_7_)" d="M.7 15.3h7l3.2-3.2V9.7H5.1L.7 2v13.3z"/></g></g><radialGradient id="SVGID_10_" cx="1.823" cy="13.317" r="6.503" gradientTransform="matrix(1 0 0 -1 0 17.36)" gradientUnits="userSpaceOnUse"><stop offset="0" stop-color="#1a237e" stop-opacity=".2"/><stop offset="1" stop-color="#1a237e" stop-opacity="0"/></radialGradient><path fill="url(#SVGID_10_)" d="M1.8 4l4.8 4.8-1.5.9L1.8 4z"/><radialGradient id="SVGID_11_" cx="7.987" cy="9.348" r="7.322" gradientTransform="matrix(1 0 0 -1 0 17.36)" gradientUnits="userSpaceOnUse"><stop offset="0" stop-color="#1a237e" stop-opacity=".2"/><stop offset="1" stop-color="#1a237e" stop-opacity="0"/></radialGradient><path fill="url(#SVGID_11_)" d="M7.7 15.3l1.7-6.5 1.5.9-3.2 5.6z"/><circle cx="8" cy="8" r="3.3" fill="#f5f5f5"/><circle cx="8" cy="8" r="2.7" class="st20"/></g><radialGradient id="SVGID_12_" cx="2.858" cy="14.692" r="14.729" gradientTransform="matrix(1 0 0 -1 0 17.36)" gradientUnits="userSpaceOnUse"><stop offset="0" stop-color="#fff" stop-opacity=".1"/><stop offset="1" stop-color="#fff" stop-opacity="0"/></radialGradient><circle cx="8" cy="8" r="7.3" fill="url(#SVGID_12_)"/><g><defs><path id="SVGID_13_" d="M15.3 7.7c-.2-3.9-3.4-7-7.3-7C4 .7.7 4 .7 8S4 15.3 8 15.3c2 0 3.7-.8 5-2l2.3-.7V7.7z"/></defs><clipPath id="SVGID_14_"><use overflow="visible" xlink:href="#SVGID_13_"/></clipPath><g clip-path="url(#SVGID_14_)"><path fill="#424242" d="M6.7 7.7h8.7v5H6.7z"/></g></g><g><defs><path id="SVGID_15_" d="M15.3 7.7c-.2-3.9-3.4-7-7.3-7C4 .7.7 4 .7 8S4 15.3 8 15.3c2 0 3.7-.8 5-2l2.3-.7V7.7z"/></defs><clipPath id="SVGID_16_"><use overflow="visible" xlink:href="#SVGID_15_"/></clipPath><path fill="#212121" d="M13.7 12.7c-.2.2-.4.5-.6.7l2.3-.7h-1.7z" clip-path="url(#SVGID_16_)"/></g><g><defs><path id="SVGID_17_" d="M15.3 7.7c-.2-3.9-3.4-7-7.3-7C4 .7.7 4 .7 8S4 15.3 8 15.3c2 0 3.7-.8 5-2l2.3-.7V7.7z"/></defs><clipPath id="SVGID_18_"><use overflow="visible" xlink:href="#SVGID_17_"/></clipPath><g clip-path="url(#SVGID_18_)"><path d="M7.8 11.2v-2h1c.1 0 .2.1.2.1s0 .1.1.2v.2c0 .1 0 .2-.1.2 0 .1-.1.2-.2.2.1 0 .1 0 .2.1l.1.1s0 .1.1.1v.5c-.1 0-.2.1-.2.1-.1 0-.1.1-.2.1h-.3c0 .1-.7.1-.7.1zm.3-1.2h.4c.1 0 .2 0 .2-.1.1-.1.1-.1.1-.2s0-.2-.1-.2-.1-.1-.3-.1h-.3v.6zm0 .3v.6H8.7s.1 0 .1-.1l.1-.1v-.1-.1s0-.1-.1-.1c0 0-.1 0-.1-.1H8.1zM10.7 10.3h-.9v.6h1v.3H9.5v-2h1.3v.3h-1v.5h.8l.1.3zM12.6 9.4H12v1.7h-.3V9.4H11v-.2h1.6v.2zM13.7 10.7h-.8l-.2.5h-.3l.8-2h.3l.8 2H14l-.3-.5zm-.7-.3h.6l-.3-.9-.3.9z" class="st26"/></g></g><g><defs><path id="SVGID_19_" d="M15.3 7.7c-.2-3.9-3.4-7-7.3-7C4 .7.7 4 .7 8S4 15.3 8 15.3c2 0 3.7-.8 5-2l2.3-.7V7.7z"/></defs><clipPath id="SVGID_20_"><use overflow="visible" xlink:href="#SVGID_19_"/></clipPath><linearGradient id="SVGID_21_" x1="1486.47" x2="1520.323" y1="-2247.17" y2="-2281.023" gradientTransform="matrix(.08333 0 0 -.08333 -115.5 -176.387)" gradientUnits="userSpaceOnUse"><stop offset="0" stop-color="#263238"/><stop offset="1" stop-color="#263238" stop-opacity="0"/></linearGradient><path fill="url(#SVGID_21_)" d="M13.7 12.7h-7l2.7 2.5c1.7-.3 3.2-1.2 4.3-2.5z" clip-path="url(#SVGID_20_)" opacity=".2"/></g><radialGradient id="SVGID_22_" cx="1430" cy="-2145.307" r="179.259" gradientTransform="matrix(.08333 0 0 -.08333 -115.5 -176.387)" gradientUnits="userSpaceOnUse"><stop offset="0" stop-color="#fff" stop-opacity=".1"/><stop offset="1" stop-color="#fff" stop-opacity="0"/></radialGradient><path fill="url(#SVGID_22_)" d="M15.3 7.7c-.2-3.9-3.4-7-7.3-7C4 .7.7 4 .7 8S4 15.3 8 15.3c2 0 3.7-.8 5-2l2.3-.7V7.7z"/></svg>