<svg width="192" height="192" fill="none" xmlns="http://www.w3.org/2000/svg"><g clip-path="url(#a)"><path d="M57.7 118.1 19.4 51.8A88.5 88.5 0 0 0 96 184.5l38.3-66.4a44 44 0 0 1-65.2 13c-4.6-3.5-8.5-8-11.4-13Z" fill="#FBBC04"/><path d="M134.3 118.1 96 184.5a88.4 88.4 0 0 0 76.6-132.7H96a44 44 0 0 1 42.7 32.8c3 11.3 1.5 23.4-4.4 33.5Z" fill="#FDD663"/><path d="M96 140.3a44.2 44.2 0 1 0 0-88.5 44.2 44.2 0 0 0 0 88.5Z" fill="#fff"/><path d="M96 131a35 35 0 1 0 0-70 35 35 0 0 0 0 70Z" fill="#FBBC04"/><path d="M96 51.8h76.6a88.4 88.4 0 0 0-153.2 0L57.7 118a44 44 0 0 1 7-53.4c8.3-8.3 19.6-13 31.3-13Z" fill="#F29900"/></g><defs><clipPath id="a"><path fill="#fff" transform="translate(7.5 7.5)" d="M0 0h177v177H0z"/></clipPath></defs></svg>
