<svg width="192" height="192" viewBox="0 0 192 192" fill="none" xmlns="http://www.w3.org/2000/svg">
<g clip-path="url(#clip0_13_23)">
<path d="M57.6809 118.132L19.3664 51.7634C11.5944 65.2141 7.50198 80.4748 7.50092 96.0098C7.49985 111.545 11.5902 126.806 19.3603 140.258C27.125 153.716 38.2972 164.89 51.7527 172.657C65.2082 180.424 80.472 184.509 96.0078 184.501L134.322 118.133V118.121C130.449 124.859 124.861 130.451 118.126 134.329C113.094 137.235 107.538 139.121 101.777 139.88C96.016 140.638 90.1619 140.254 84.5491 138.75C78.9362 137.246 73.6746 134.651 69.0645 131.113C64.4545 127.576 60.5863 123.164 57.6809 118.132V118.132Z" fill="#FBBC04"/>
<path d="M134.319 118.13L96.0049 184.498C111.539 184.504 126.8 180.418 140.253 172.652C153.706 164.885 164.876 153.712 172.64 140.256C180.411 126.803 184.501 111.539 184.499 96.002C184.497 80.4649 180.402 65.2026 172.627 51.751H95.9986L95.989 51.757C103.76 51.7428 111.397 53.7863 118.123 57.6801C128.286 63.5484 135.702 73.2139 138.74 84.5505C141.777 95.887 140.187 107.966 134.319 118.13V118.13Z" fill="#FDD663"/>
<path d="M96 140.25C120.439 140.25 140.25 120.439 140.25 96C140.25 71.5614 120.439 51.75 96 51.75C71.5614 51.75 51.75 71.5614 51.75 96C51.75 120.439 71.5614 140.25 96 140.25Z" fill="white"/>
<path d="M96.0015 131.039C115.348 131.039 131.032 115.354 131.032 96.0053C131.032 76.657 115.348 60.972 96.0015 60.972C76.6548 60.972 60.9712 76.657 60.9712 96.0053C60.9712 115.354 76.6548 131.039 96.0015 131.039Z" fill="#FBBC04"/>
<path d="M96.0016 51.7527H172.63C164.869 38.296 153.7 27.1211 140.248 19.3527C126.796 11.5842 111.535 7.4962 96.0016 7.50003C80.4658 7.49642 65.2032 11.5856 51.7499 19.356C38.2966 27.1265 27.1274 38.3041 19.3665 51.7636L57.6808 118.132L57.6907 118.137C53.7927 111.413 51.744 103.777 51.7527 96.0054C51.7527 84.2688 56.4147 73.013 64.7129 64.714C73.0112 56.415 84.2661 51.7527 96.0016 51.7527V51.7527Z" fill="#F29900"/>
</g>
<defs>
<clipPath id="clip0_13_23">
<rect width="177" height="177" fill="white" transform="translate(7.5 7.5)"/>
</clipPath>
</defs>
</svg>
