<svg xmlns="http://www.w3.org/2000/svg" viewBox="0 0 100 100"><path d="m.05 61.35h3.92v-10.21c0-2.01 1.32-3.48 3.21-3.48 1.82 0 2.96 1.15 2.96 3v10.68h3.81v-10.3c0-2 1.29-3.38 3.18-3.38 1.92 0 2.99 1.16 2.99 3.21v10.48h3.92v-11.44c0-3.34-2.16-5.55-5.44-5.55-2.41 0-4.39 1.29-5.19 3.35h-.11c-.61-2.14-2.3-3.35-4.66-3.35-2.27 0-4.03 1.27-4.75 3.21h-.08v-2.89h-3.76zm32.55-2.69c-1.7 0-2.83-.87-2.83-2.23 0-1.32 1.09-2.17 2.97-2.3l3.85-.24v1.27c.01 2.02-1.77 3.5-3.99 3.5zm-1.18 2.96c2.14 0 4.23-1.12 5.19-2.93h.08v2.66h3.78v-11.48c0-3.35-2.69-5.54-6.83-5.54-4.25 0-6.91 2.23-7.08 5.35h3.63c.25-1.38 1.43-2.28 3.29-2.28 1.94 0 3.11 1.01 3.11 2.75v1.2l-4.41.25c-4.06.25-6.34 2.03-6.34 4.99.01 3 2.36 5.03 5.58 5.03zm26.24-11c-.27-3.51-2.99-6.29-7.39-6.29-4.85 0-7.99 3.35-7.99 8.68 0 5.41 3.15 8.67 8.02 8.67 4.18 0 7.06-2.45 7.38-6.18h-3.7c-.36 1.89-1.65 3.02-3.63 3.02-2.49 0-4.09-2.01-4.09-5.51 0-3.43 1.59-5.51 4.06-5.51 2.09 0 3.34 1.34 3.65 3.11zm12.1-12.35c-6.62 0-10.78 4.52-10.78 11.74s4.15 11.72 10.78 11.72c6.61 0 10.76-4.5 10.76-11.72s-4.15-11.74-10.76-11.74zm0 3.46c4.04 0 6.62 3.21 6.62 8.27 0 5.05-2.58 8.26-6.62 8.26-4.06 0-6.62-3.21-6.62-8.26 0-5.06 2.56-8.27 6.62-8.27zm12.41 13.23c.17 4.18 3.6 6.76 8.83 6.76 5.49 0 8.95-2.71 8.95-7.02 0-3.38-1.95-5.29-6.56-6.34l-2.61-.6c-2.78-.66-3.93-1.54-3.93-3.05 0-1.89 1.73-3.15 4.29-3.15 2.6 0 4.37 1.27 4.56 3.4h3.87c-.09-4-3.4-6.7-8.4-6.7-4.94 0-8.45 2.72-8.45 6.75 0 3.24 1.98 5.25 6.17 6.21l2.94.69c2.86.68 4.03 1.62 4.03 3.26 0 1.89-1.9 3.24-4.64 3.24-2.77 0-4.86-1.37-5.11-3.46z" fill="#010101"/></svg>