<svg xmlns="http://www.w3.org/2000/svg" xmlns:xlink="http://www.w3.org/1999/xlink" viewBox="0 0 93.95 93.95"><defs><clipPath id="a" transform="translate(3.91 3.91)"><circle class="a" cx="43.06" cy="43.06" r="43.06"/></clipPath><clipPath id="g" transform="translate(3.91 3.91)"><path class="a" d="M0 86.12h40.99L60.02 67.1V52.85H26.11L0 8.06v78.06z"/></clipPath><clipPath id="l" transform="translate(3.91 3.91)"><path class="a" d="M43.06 23.49l16.96 29.36-19.03 33.27h45.13V23.49H43.06z"/></clipPath><clipPath id="p" transform="translate(3.91 3.91)"><path class="a" d="M6.84 0v19.74l19.27 33.11 16.95-29.36h43.06V0H6.84z"/></clipPath><clipPath id="x" transform="translate(3.91 3.91)"><circle class="a" cx="43.06" cy="43.07" r="43.05"/></clipPath><radialGradient id="n" cx="2296.77" cy="3072.54" r="15.43" gradientTransform="matrix(2.67 0 0 2.67 -6083.2 -8170.97)" gradientUnits="userSpaceOnUse"><stop offset="0" stop-color="#3e2723" stop-opacity=".2"/><stop offset="1" stop-color="#3e2723" stop-opacity="0"/></radialGradient><radialGradient id="r" cx="2381.44" cy="2856.74" r="14.32" gradientTransform="matrix(1 0 0 -1 0 88)" xlink:href="#n"/><radialGradient id="s" cx="2297.44" cy="3079.91" r="16.12" gradientTransform="matrix(2.67 0 0 2.67 -6083.2 -8170.97)" gradientUnits="userSpaceOnUse"><stop offset="0" stop-color="#263238" stop-opacity=".2"/><stop offset="1" stop-color="#263238" stop-opacity="0"/></radialGradient><radialGradient id="w" cx="1710.15" cy="3068.14" r="32.43" gradientTransform="matrix(2.67 0 0 2.67 -4543.29 -8167.06)" gradientUnits="userSpaceOnUse"><stop offset="0" stop-color="#fff" stop-opacity=".1"/><stop offset="1" stop-color="#fff" stop-opacity="0"/></radialGradient><linearGradient id="b" x1="1707.16" y1="3072.48" x2="1716.79" y2="3066.85" gradientTransform="matrix(2.67 0 0 2.67 -4547.2 -8170.97)" gradientUnits="userSpaceOnUse"><stop offset="0" stop-color="#a52714" stop-opacity=".6"/><stop offset=".66" stop-color="#a52714" stop-opacity="0"/></linearGradient><linearGradient id="e" x1="1725.14" y1="3090.84" x2="1714.44" y2="3084.58" gradientTransform="matrix(2.67 0 0 2.67 -4547.2 -8170.97)" gradientUnits="userSpaceOnUse"><stop offset="0" stop-color="#055524" stop-opacity=".4"/><stop offset=".33" stop-color="#055524" stop-opacity="0"/></linearGradient><linearGradient id="h" x1="1724.8" y1="3071.73" x2="1727.49" y2="3083.53" gradientTransform="matrix(2.67 0 0 2.67 -4547.2 -8170.97)" gradientUnits="userSpaceOnUse"><stop offset="0" stop-color="#ea6100" stop-opacity=".3"/><stop offset=".66" stop-color="#ea6100" stop-opacity="0"/></linearGradient><style>.a{fill:none}.b{clip-path:url(#a)}.c{fill:#db4437}.d{fill:url(#b)}.f{fill:#0f9d58}.g{fill:url(#e)}.j{fill:#ffcd40}.k{fill:url(#h)}.v{fill:#fff}</style></defs><g class="b"><path class="c" d="M10.75 3.91v52.85h19.27l17-29.36h43.01V3.91z"/><path class="d" d="M10.75 3.91v52.85h19.27l17-29.36h43.01V3.91z"/></g><path d="M30.49 56.59L11 23.16l-.29.49 19.35 33.18z" fill-opacity=".15" fill="#3e2723"/><g class="b"><path class="f" d="M3.91 90.03h41l19-19V56.76H30.02L3.91 11.97z"/><path class="g" d="M3.91 90.03h41l19-19V56.76H30.02L3.91 11.97z"/></g><path d="M63.53 57.41l-.4-.23-18.79 32.85h.57l18.64-32.61z" fill="#263238" fill-opacity=".15"/><g class="b"><g clip-path="url(#g)"><path class="j" d="M46.97 27.4l16.94 29.36-19 33.27h45.12V27.4z"/><path class="k" d="M46.97 27.4l16.94 29.36-19 33.27h45.12V27.4z"/></g><g class="b"><path class="j" d="M46.97 27.4l16.94 29.36-19 33.27h45.12V27.4z"/><path class="k" d="M46.97 27.4l16.94 29.36-19 33.27h45.12V27.4z"/></g><g class="b"><g clip-path="url(#l)"><path class="c" d="M10.75 3.91v52.85h19.27l17-29.36h43.01V3.91z"/><path class="d" d="M10.75 3.91v52.85h19.27l17-29.36h43.01V3.91z"/></g><path d="M43.06 23.49v10.25l38.37-10.25z" transform="translate(3.91 3.91)" fill="url(#n)"/><g class="b"><g clip-path="url(#p)"><path class="f" d="M3.91 90.03h41l19-19V56.76H30.02L3.91 11.97z"/><path class="g" d="M3.91 90.03h41l19-19V56.76H30.02L3.91 11.97z"/></g><path d="M6.84 19.79l28 28-8.74 5.05z" transform="translate(3.91 3.91)" fill="url(#r)"/><path d="M41 86.07L51.28 47.8 60 52.85z" transform="translate(3.91 3.91)" fill="url(#s)"/><g class="b"><circle cx="46.97" cy="46.97" r="19.57" fill="#f1f1f1"/><circle cx="46.97" cy="46.97" r="15.66" fill="#4285f4"/></g><circle cx="46.97" cy="46.97" r="43.06" fill="url(#w)"/></g><path class="a" d="M0 0h93.91v93.91H0z"/></g></g><g clip-path="url(#x)"><path style="isolation:isolate" fill="#424242" d="M3.85 48.37h86.17v41.67H3.85z"/></g><path class="v" d="M35.27 80.66a13.64 13.64 0 01-5.46-1.07 13.44 13.44 0 01-4.34-2.94 13.2 13.2 0 01-2.89-4.4 14.75 14.75 0 010-10.83 13.53 13.53 0 017.23-7.36 14.41 14.41 0 0110.9 0 13.51 13.51 0 014.37 3 13.76 13.76 0 012.88 4.4 14.62 14.62 0 010 10.83 13.28 13.28 0 01-7.25 7.34 13.65 13.65 0 01-5.44 1.03zm0-4a9.74 9.74 0 003.7-.7 8.9 8.9 0 003-2 9.37 9.37 0 002-3.11 11.37 11.37 0 000-8.07 9.43 9.43 0 00-2-3.1 8.76 8.76 0 00-3-2 10.13 10.13 0 00-7.4 0 8.72 8.72 0 00-3 2 9.45 9.45 0 00-2 3.1 11.37 11.37 0 000 8.07 9.4 9.4 0 002 3.11 8.86 8.86 0 003 2 9.74 9.74 0 003.7.71zM60.1 80.66a10.37 10.37 0 01-3.09-.46 9.64 9.64 0 01-2.78-1.38 9.77 9.77 0 01-2.23-2.3 10.13 10.13 0 01-1.48-3.18l4-1.63a8 8 0 00.76 1.94 6.17 6.17 0 001.22 1.58 5.69 5.69 0 001.63 1.05 5.05 5.05 0 002 .39 6.52 6.52 0 001.78-.24 4.35 4.35 0 001.48-.72 3.78 3.78 0 001-1.19 3.29 3.29 0 00.41-1.61 3.43 3.43 0 00-1.22-2.71 7.29 7.29 0 00-1.67-1c-.69-.33-1.52-.67-2.48-1l-1.66-.59a14.45 14.45 0 01-2.2-1 9.42 9.42 0 01-2-1.48 7.13 7.13 0 01-1.48-2 6.36 6.36 0 01-.57-2.78 6.46 6.46 0 01.61-2.79 7.06 7.06 0 011.72-2.32 8.45 8.45 0 012.64-1.57 10.63 10.63 0 016.78 0 8.25 8.25 0 012.42 1.24 7.49 7.49 0 011.61 1.79 9.91 9.91 0 01.9 1.83l-3.77 1.59a5.78 5.78 0 00-.52-1.16 3.92 3.92 0 00-.9-1 4.93 4.93 0 00-1.32-.74 4.73 4.73 0 00-1.78-.31 5.6 5.6 0 00-1.66.24 4.1 4.1 0 00-1.35.69 3.42 3.42 0 00-.91 1 2.64 2.64 0 00-.33 1.3 2.72 2.72 0 001.16 2.27 12.9 12.9 0 003.43 1.65l1.66.59a17.7 17.7 0 012.85 1.26 9.4 9.4 0 012.26 1.69 7.13 7.13 0 011.5 2.31 7.92 7.92 0 01.53 3 7 7 0 01-.83 3.53 7.81 7.81 0 01-2.13 2.43 8.77 8.77 0 01-2.88 1.4 11.39 11.39 0 01-3.11.39z"/></svg>