<svg xmlns="http://www.w3.org/2000/svg" viewBox="0 0 50 50"><g fill="#ED1D7F"><path d="M20.8 2.7C8.5 3.6-.8 14.2 0 26.5s11.5 21.6 23.8 20.7c2.3-.2 4.6-.7 6.8-1.6.3-.1.4-.4.3-.7-.1-.2-.3-.4-.6-.3h-.2c-2.1.8-4.2 1.3-6.5 1.5-11.5.8-21.6-8-22.4-19.7s8-21.8 19.7-22.6 21.8 8 22.6 19.7c.1.8.1 1.7 0 2.5 0 .1 0 .3.1.4.1.1.2.2.4.2h.1c.3 0 .5-.2.5-.5v-2.7C43.7 11.2 33.1 1.9 20.8 2.7z"/><path d="M46.3 30c-1.6-1.3-3.6-2.1-5.7-2.1-.3 1.8-.8 3.4-1.5 5 .4-.1.8-.1 1.2-.1 1.2 0 2.2.4 3 1.1 1.1.9 1.8 2.3 1.8 3.8 0 2.7-2.2 4.9-4.9 4.9s-4.9-2.2-4.9-4.9c0-1 .3-2 .9-2.8 5.4-7.7 3.6-18.3-4.2-23.8-7.7-5.4-18.3-3.6-23.8 4.2-5.4 7.7-3.6 18.3 4.2 23.8 5.2 3.7 11.8 4 17.1 1.4-.5-1.8-.5-3.8 0-5.7-4.1 3.1-9.9 3.4-14.4.3-5.5-3.9-6.8-11.5-3-17 3.9-5.5 11.5-6.8 17-3 5.5 3.9 6.8 11.5 3 17-1.1 1.6-1.8 3.5-1.8 5.6 0 5.4 4.4 9.7 9.7 9.7s10-4.4 10-9.8c0-3.1-1.4-5.8-3.7-7.6z"/></g></svg>