<svg xmlns="http://www.w3.org/2000/svg" baseProfile="full" viewBox="0 0 1952 734.93"><path fill="#3D3D3D" d="M1436.62 603.304l56.39-142.599h162.82l-77.27-216.315L1675.2 0 1952 734.934h-204.13l-47.3-131.629h-263.95z"/><path fill="#5A0FC8" d="M1262.47 734.935L1558.79.002h-196.45l-202.7 474.931L1015.5.003H864.499l-154.768 474.93-109.146-216.416-98.773 304.302 100.284 172.116h193.331l139.857-425.91 133.346 425.91h193.84z"/><path fill="#3D3D3D" d="M186.476 482.643h121.003c36.654 0 69.293-4.091 97.917-12.273l31.293-96.408 87.459-269.446c-6.664-10.563-14.272-20.55-22.824-29.96C456.419 24.853 390.719 0 304.222 0H0v734.933h186.476v-252.29zm160.166-313.564c17.54 17.653 26.309 41.276 26.309 70.871 0 29.822-7.713 53.474-23.138 70.956-16.91 19.425-48.047 29.137-93.409 29.137h-69.928V142.598h70.442c42.277 0 72.185 8.827 89.724 26.481z"/></svg>